<svg width="62" height="51" viewBox="0 0 62 51" fill="none" xmlns="http://www.w3.org/2000/svg">
<path d="M60.4357 28.6798C66.5501 1.51856 20.4324 -16.6419 2.18807 24.2303C-8.52843 48.2381 52.0254 66.0398 60.4357 28.6798Z" fill="#88CBFF"/>
<path d="M43.0851 19.8972C43.0851 18.1365 41.5316 16.583 39.7709 16.583H26.4106C24.65 16.583 23.0964 18.1365 23.0964 19.8972V33.2575C23.0964 35.0182 24.65 36.5717 26.4106 36.5717H33.1426V29.0112H30.6569V25.697H33.1426V24.3506C33.1426 22.0721 34.7997 20.1043 36.871 20.1043H39.5638V23.4185H36.871C36.5603 23.4185 36.2496 23.7292 36.2496 24.3506V25.697H39.5638V29.0112H36.2496V36.5717H39.7709C41.5316 36.5717 43.0851 35.0182 43.0851 33.2575V19.8972Z" fill="white"/>
</svg>
