<svg width="101" height="31" viewBox="0 0 101 31" fill="none" xmlns="http://www.w3.org/2000/svg">
<path d="M94.181 0.442762H87.8334C85.9143 0.442762 84.4381 1.03324 83.5524 2.9523L71.4477 30.5572H80.0096C80.0096 30.5572 81.4858 26.8667 81.781 25.981C82.6667 25.981 91.081 25.981 92.2619 25.981C92.5572 27.0143 93.2953 30.4095 93.2953 30.4095H100.971L94.181 0.442762ZM84.1429 19.7809C84.881 18.0095 87.3905 11.3666 87.3905 11.3666C87.3905 11.5142 88.1286 9.59518 88.4239 8.56184L89.0143 11.219C89.0143 11.219 90.6381 18.4524 90.9334 19.9286H84.1429V19.7809Z" fill="#3362AB"/>
<path d="M72.0381 20.6666C72.0381 26.8666 66.4285 31 57.719 31C54.0285 31 50.4857 30.2619 48.5666 29.3762L49.7476 22.5857L50.7809 23.0285C53.4381 24.2095 55.2095 24.6524 58.4571 24.6524C60.819 24.6524 63.3285 23.7666 63.3285 21.7C63.3285 20.3714 62.2952 19.4857 59.0476 18.0095C55.9476 16.5333 51.8142 14.1714 51.8142 9.89039C51.8142 3.98561 57.5714 -0.00012207 65.6904 -0.00012207C68.7904 -0.00012207 71.4476 0.590356 73.0714 1.32845L71.8904 7.82372L71.3 7.23324C69.8238 6.64276 67.9047 6.05228 65.1 6.05228C62 6.1999 60.5238 7.52848 60.5238 8.70944C60.5238 10.038 62.2952 11.0713 65.1 12.3999C69.8238 14.6142 72.0381 17.1238 72.0381 20.6666Z" fill="#3362AB"/>
<path d="M37.0523 0.442689L24.2094 30.4095H15.4999L8.11896 5.31414C13.4332 8.70939 17.8618 14.0237 19.4856 17.7142L20.3713 20.8142L28.3428 0.295069H37.0523V0.442689Z" fill="#3362AB"/>
<path d="M40.4476 0.295069H48.5666L43.4 30.4095H35.2809L40.4476 0.295069Z" fill="#3362AB"/>
<path d="M-3.05176e-05 0.738059L0.147589 0.147583H12.8428C14.6143 0.147583 15.9428 0.738059 16.3857 2.6571L19.1905 15.9428C16.3857 8.8571 9.89045 3.09996 -3.05176e-05 0.738059Z" fill="#F9B50B"/>
</svg>
