<svg width="281" height="110" viewBox="0 0 281 110" fill="none" xmlns="http://www.w3.org/2000/svg">
<path d="M205 10.6799C222.861 11.0436 240.524 15.3969 256.751 23.7107" stroke="black" stroke-width="2" stroke-miterlimit="10" stroke-linecap="round"/>
<path d="M72 108.363C69.0503 108.788 66.0577 109 63.1009 109H63.0973C45.8189 109 29.863 101.856 18 89.9995" stroke="black" stroke-width="2" stroke-miterlimit="10" stroke-linecap="round"/>
<path d="M278.342 46.4182C279.354 42.1348 276.701 37.8425 272.418 36.8311C268.135 35.8197 263.843 38.4722 262.831 42.7555C261.82 47.0389 264.472 51.3312 268.756 52.3426C273.039 53.354 277.331 50.7016 278.342 46.4182Z" stroke="black" stroke-width="2" stroke-miterlimit="10" stroke-linecap="round"/>
<path d="M10.6241 57.3763L12 56.0004M1.00006 67.0002L2.37249 65.6243M2.37249 57.3763L1.00006 56.0004M12 67.0002L10.6241 65.6243" stroke="black" stroke-width="2" stroke-miterlimit="10" stroke-linecap="round"/>
</svg>
