<svg width="60" height="50" viewBox="0 0 60 50" fill="none" xmlns="http://www.w3.org/2000/svg">
<path d="M4.40411 14.6349C-19.1555 48.4213 59.4993 66.3141 59.1655 27.9705C58.9437 2.41625 23.6299 -12.9367 4.40411 14.6349Z" fill="#88CBFF"/>
<path d="M39.9887 18.3142C39.9887 16.5535 38.4352 15 36.6745 15H23.3142C21.5535 15 20 16.5535 20 18.3142V31.6745C20 33.4352 21.5535 34.9887 23.3142 34.9887H30.0461V27.4282H27.5605V24.114H30.0461V22.7676C30.0461 20.4891 31.7032 18.5213 33.7746 18.5213H36.4674V21.8355H33.7746C33.4639 21.8355 33.1532 22.1462 33.1532 22.7676V24.114H36.4674V27.4282H33.1532V34.9887H36.6745C38.4352 34.9887 39.9887 33.4352 39.9887 31.6745V18.3142Z" fill="white"/>
</svg>
