<svg width="155" height="156" viewBox="0 0 155 156" fill="none" xmlns="http://www.w3.org/2000/svg">
<g clip-path="url(#clip0)">
<path d="M88.9426 16.1624C106.56 16.1624 122.856 21.4416 134.824 31.0269" stroke="black" stroke-width="2" stroke-miterlimit="10" stroke-linecap="round"/>
<path d="M28.0142 128.51C15.5384 123.099 6.02559 115.299 1.0788 105.812" stroke="black" stroke-width="2" stroke-miterlimit="10" stroke-linecap="round"/>
<path d="M21.1092 44.3185C-57.006 93.368 109.318 173.482 144.235 103.688C169.432 53.3252 84.8555 4.29241 21.1092 44.3185Z" stroke="black" stroke-width="2" stroke-miterlimit="10" stroke-linecap="round"/>
<path d="M11.7898 62.9574C-43.5738 142.241 151.131 163.27 150.345 73.2922C149.824 13.3292 56.9683 -1.74081 11.7898 62.9574Z" fill="#88CBFF"/>
<path d="M138.772 34.4885C144.338 39.8372 148.531 46.0623 151.27 52.9975" stroke="black" stroke-width="2" stroke-miterlimit="10" stroke-linecap="round"/>
<path d="M16.0627 32.4564C16.0627 34.2 14.65 35.6127 12.9064 35.6127C11.1628 35.6127 9.75006 34.2 9.75006 32.4564C9.75006 30.7128 11.1628 29.3 12.9064 29.3C14.65 29.3 16.0627 30.7128 16.0627 32.4564Z" stroke="black" stroke-width="2" stroke-miterlimit="10" stroke-linecap="round"/>
<path d="M151.888 121.488L152.502 120.875" stroke="black" stroke-width="2" stroke-miterlimit="10" stroke-linecap="round"/>
<path d="M147.596 125.779L148.209 125.166" stroke="black" stroke-width="2" stroke-miterlimit="10" stroke-linecap="round"/>
<path d="M148.209 121.488L147.596 120.875" stroke="black" stroke-width="2" stroke-miterlimit="10" stroke-linecap="round"/>
<path d="M152.502 125.779L151.888 125.166" stroke="black" stroke-width="2" stroke-miterlimit="10" stroke-linecap="round"/>
<path d="M139.831 55.3547C199.508 131.676 56.3231 178.531 11.8593 84.5943C-14.9416 27.969 90.727 -7.44422 139.831 55.3547Z" stroke="black" stroke-width="2" stroke-miterlimit="10" stroke-linecap="round"/>
</g>
<path d="M75.5949 71.705C75.3249 71.125 75.1849 70.495 75.1849 69.855C75.1849 67.405 77.1749 65.425 79.6149 65.425C82.0649 65.425 84.0449 67.415 84.0449 69.855C84.0449 70.495 83.9049 71.125 83.6349 71.705C86.4249 72.175 88.4749 74.585 88.4849 77.425V85.8249C88.4849 86.3149 88.0849 86.7149 87.5949 86.7149H84.9349V98.2449C84.9349 98.7349 84.5349 99.1349 84.0449 99.1349H75.1749C74.6849 99.1349 74.2849 98.7349 74.2849 98.2449V86.7049H71.6249C71.1349 86.7049 70.7349 86.3049 70.7349 85.8149V77.415C70.7549 74.585 72.8049 72.175 75.5949 71.705ZM74.2949 84.9349V76.065H76.0649V97.3549H78.7349V84.9349H80.5049V97.3549H83.1649V76.065H84.9349V84.9349H86.7049V77.425C86.7049 75.205 84.9049 73.405 82.6849 73.405H81.9349C81.4449 73.405 81.0449 73.005 81.0449 72.515C81.0449 72.255 81.1549 72.015 81.3449 71.845C81.9249 71.345 82.2649 70.615 82.2649 69.855C82.2649 68.385 81.0749 67.195 79.6049 67.195C78.1349 67.195 76.9449 68.385 76.9449 69.855C76.9449 70.625 77.2849 71.355 77.8649 71.845C78.2349 72.165 78.2749 72.725 77.9449 73.095C77.7749 73.285 77.5349 73.395 77.2749 73.395H76.5249C74.3049 73.395 72.5049 75.195 72.5049 77.415V84.9349H74.2949Z" fill="black"/>
<path d="M69.5549 54.985C72.7449 53.675 76.1649 53.005 79.6149 53.005C85.2149 52.995 90.6849 54.755 95.2149 58.055L94.1749 59.495C83.0549 51.465 67.5249 53.965 59.4849 65.085C54.4649 72.045 53.3749 81.0949 56.6249 89.0349L54.9849 89.7049C49.4249 76.095 55.9449 60.545 69.5549 54.985Z" fill="black"/>
<path d="M67.6349 101.365C79.6649 107.975 94.7749 103.585 101.385 91.5649C104.475 85.9349 105.275 79.3249 103.605 73.125L105.315 72.665C109.145 86.8649 100.735 101.475 86.5349 105.305C84.2849 105.915 81.9549 106.225 79.6249 106.225C75.1349 106.225 70.7149 105.085 66.7749 102.925L67.6349 101.365Z" fill="black"/>
<path d="M63.5349 72.145C66.4449 65.885 72.7149 61.875 79.6249 61.875C89.4249 61.875 97.3649 69.825 97.3649 79.615C97.3649 86.5149 93.3549 92.7949 87.0949 95.7049L86.3449 94.0949C94.3449 90.3849 97.8149 80.8849 94.1049 72.895C90.3949 64.895 80.8949 61.425 72.9049 65.135C64.9049 68.845 61.4349 78.335 65.1449 86.3349C66.7349 89.7549 69.4849 92.5049 72.9049 94.0949L72.1549 95.7049C63.2649 91.5749 59.4049 81.0249 63.5349 72.145Z" fill="black"/>
<path d="M57.6049 92.2449C57.4149 91.6649 57.4049 91.0349 57.5749 90.4449C57.8849 89.4249 58.7049 88.6349 59.7449 88.3649C60.6949 88.1149 61.7049 88.3149 62.4849 88.9249C63.4949 89.7049 63.9149 91.0349 63.5149 92.2549C64.6449 92.5649 65.4349 93.5949 65.4349 94.7649V99.9449C65.4349 100.435 65.0349 100.835 64.5449 100.835H63.6549V105.345C63.6549 105.835 63.2549 106.235 62.7649 106.235H58.3349C57.8449 106.235 57.4449 105.835 57.4449 105.345V100.835H56.5549C56.0649 100.835 55.6649 100.435 55.6649 99.9449V94.7649C55.6849 93.5749 56.4649 92.5549 57.6049 92.2449ZM57.4449 99.0449H58.3349C58.8249 99.0449 59.2249 99.4449 59.2249 99.9349V104.445H61.8849V99.9349C61.8849 99.4449 62.2849 99.0449 62.7749 99.0449H63.6649V94.7549C63.6549 94.2749 63.2549 93.9049 62.7749 93.9149H61.8749C61.3849 93.9149 60.9849 93.5149 60.9849 93.0249C60.9849 92.7449 61.1249 92.4749 61.3549 92.3049C61.9149 91.9249 62.0549 91.1549 61.6749 90.5949C61.5949 90.4849 61.5049 90.3849 61.3949 90.3049C61.0449 90.0349 60.5949 89.9549 60.1749 90.0649C59.7449 90.1749 59.4149 90.4949 59.2749 90.9149C59.1149 91.4349 59.3049 91.9849 59.7549 92.2949C60.1549 92.5849 60.2349 93.1349 59.9549 93.5349C59.7849 93.7649 59.5249 93.9049 59.2349 93.9049H58.3349C57.8549 93.8949 57.4649 94.2649 57.4449 94.7449V99.0449Z" fill="black"/>
<path d="M98.4049 56.985C98.2149 56.405 98.2049 55.775 98.3749 55.185C98.6749 54.165 99.4949 53.375 100.535 53.105C101.485 52.855 102.505 53.055 103.275 53.665C104.295 54.435 104.705 55.775 104.305 56.985C105.435 57.305 106.215 58.325 106.225 59.495V64.525C106.225 65.015 105.825 65.415 105.335 65.415H104.445V70.735C104.445 71.225 104.045 71.625 103.555 71.625H99.1349C98.6449 71.625 98.2449 71.225 98.2449 70.735V65.415H97.3549C96.8649 65.415 96.4649 65.015 96.4649 64.525V59.495C96.4849 58.325 97.2649 57.295 98.4049 56.985ZM98.2449 63.645H99.1349C99.6249 63.645 100.025 64.045 100.025 64.535V69.855H102.685V64.535C102.685 64.045 103.085 63.645 103.575 63.645H104.455V59.495C104.445 59.015 104.045 58.645 103.565 58.655H102.665C102.175 58.655 101.775 58.255 101.775 57.765C101.775 57.485 101.915 57.215 102.145 57.045C102.705 56.665 102.845 55.895 102.465 55.335C102.385 55.225 102.295 55.125 102.185 55.045C101.835 54.775 101.385 54.685 100.965 54.805C100.535 54.915 100.205 55.235 100.065 55.655C99.9149 56.195 100.105 56.755 100.555 57.055C100.945 57.345 101.035 57.895 100.755 58.295C100.585 58.525 100.315 58.665 100.035 58.665H99.1349C98.6549 58.645 98.2649 59.025 98.2449 59.495V63.645Z" fill="black"/>
<path d="M53.0149 53.005H54.7849V54.775H53.0149V53.005Z" fill="black"/>
<path d="M55.6749 55.665H57.4449V57.435H55.6749V55.665Z" fill="black"/>
<path d="M101.795 101.785H103.565V103.555H101.795V101.785Z" fill="black"/>
<path d="M104.455 104.445H106.225V106.215H104.455V104.445Z" fill="black"/>
<defs>
<clipPath id="clip0">
<rect width="154.635" height="155.082" fill="white"/>
</clipPath>
</defs>
</svg>
