<svg width="172" height="123" viewBox="0 0 172 123" fill="none" xmlns="http://www.w3.org/2000/svg">
<path d="M118.788 116.735C105.001 114.864 91.2138 112.993 77.427 111.122C63.1378 109.182 48.8471 107.243 34.5579 105.305C32.5968 105.039 26.8501 104.001 21.7622 99.158C18.3301 95.8914 15.9027 91.5705 14.9928 86.681L6.1826 39.3841C3.65142 25.7987 13.558 13.054 27.3479 12.1547L132.719 5.28302C147.743 4.30393 159.659 17.7525 156.879 32.55L144.548 98.1503C142.28 110.214 130.953 118.386 118.788 116.735Z" stroke="black" stroke-width="2" stroke-miterlimit="10" stroke-linecap="round"/>
<path d="M25.6274 3.6123C29.2429 1.90939 33.2284 0.999268 37.3327 0.999268" stroke="black" stroke-width="2" stroke-miterlimit="10" stroke-linecap="round"/>
<path d="M53.3245 121.043C52.0867 121.212 50.8309 121.296 49.5901 121.296H49.5886C42.338 121.296 35.6423 118.463 30.6642 113.76" stroke="black" stroke-width="2" stroke-miterlimit="10" stroke-linecap="round"/>
<path d="M143.441 12.5813L38.8653 5.7608C23.955 4.78773 12.1278 18.1355 14.8876 32.8218L27.1254 97.9258C29.3768 109.9 40.6159 118.011 52.6898 116.374C73.5889 113.537 115.386 107.864 136.285 105.029C146.067 103.701 153.895 96.2503 155.702 86.5452L164.447 39.6062C166.957 26.1231 157.125 13.4747 143.441 12.5813Z" fill="#88CBFF"/>
<path d="M170.659 10.7139C171.058 9.02537 170.013 7.3333 168.324 6.93459C166.635 6.53588 164.943 7.58151 164.544 9.27004C164.146 10.9586 165.191 12.6506 166.88 13.0493C168.569 13.448 170.261 12.4024 170.659 10.7139Z" stroke="black" stroke-width="2" stroke-miterlimit="10" stroke-linecap="round"/>
<path d="M155.281 108.288L155.892 107.678" stroke="black" stroke-width="2" stroke-miterlimit="10" stroke-linecap="round"/>
<path d="M151.009 112.559L151.619 111.948" stroke="black" stroke-width="2" stroke-miterlimit="10" stroke-linecap="round"/>
<path d="M151.619 108.288L151.009 107.678" stroke="black" stroke-width="2" stroke-miterlimit="10" stroke-linecap="round"/>
<path d="M155.892 112.559L155.281 111.948" stroke="black" stroke-width="2" stroke-miterlimit="10" stroke-linecap="round"/>
<path d="M5.27112 12.4705L5.88177 11.8594" stroke="black" stroke-width="2" stroke-miterlimit="10" stroke-linecap="round"/>
<path d="M0.999939 16.7419L1.60901 16.1311" stroke="black" stroke-width="2" stroke-miterlimit="10" stroke-linecap="round"/>
<path d="M1.60901 12.4705L0.999939 11.8594" stroke="black" stroke-width="2" stroke-miterlimit="10" stroke-linecap="round"/>
<path d="M5.88177 16.7419L5.27112 16.1311" stroke="black" stroke-width="2" stroke-miterlimit="10" stroke-linecap="round"/>
<path d="M115.852 112.349C103.151 110.626 90.4498 108.902 77.7503 107.178C64.5861 105.392 51.4234 103.605 38.2592 101.818C36.4529 101.573 31.1589 100.618 26.4711 96.1559C23.3097 93.1464 21.0734 89.1654 20.2356 84.6611L12.1202 41.0911C9.78909 28.5766 18.9152 16.8367 31.6177 16.008L128.685 9.67778C142.526 8.7754 153.504 21.1651 150.941 34.7955L139.581 95.2264C137.492 106.342 127.059 113.871 115.852 112.349Z" stroke="black" stroke-width="2" stroke-miterlimit="10" stroke-linecap="round"/>
<path d="M74.2889 43.41C74.0389 43.41 73.7789 43.51 73.5889 43.7C73.1889 44.1 73.1889 44.73 73.5689 45.12C73.9389 45.5 74.5989 45.5 74.9789 45.12L74.9989 45.1C75.1889 44.91 75.2889 44.66 75.2889 44.4C75.2889 44.14 75.1889 43.88 74.9989 43.7C74.7989 43.5 74.5489 43.41 74.2889 43.41Z" fill="black"/>
<path d="M104.079 74.19C108.859 69.41 111.489 63.06 111.489 56.3C111.489 49.54 108.859 43.19 104.079 38.41C99.2989 33.63 92.9489 31 86.1889 31C79.4289 31 73.0789 33.63 68.2989 38.41C65.0189 41.69 62.7089 45.79 61.6189 50.27L61.5889 50.4H52.9989C52.5989 50.4 52.2389 50.64 52.0789 51.01C51.9289 51.38 52.0089 51.81 52.2889 52.09L56.4889 56.29L52.2889 60.49C52.0089 60.77 51.9189 61.2 52.0789 61.57C52.2289 61.94 52.5889 62.18 52.9989 62.18H61.5789L61.6089 62.31C62.6989 66.79 65.0189 70.89 68.2889 74.17C69.6889 75.57 71.2589 76.81 72.9389 77.85L73.0789 77.94L69.4789 84.31C69.3089 84.62 69.3089 85 69.4889 85.3C69.6689 85.6 69.9989 85.79 70.3489 85.79H76.3689C76.7289 85.79 77.0589 85.6 77.2289 85.29L79.7889 80.78L79.9189 80.81C83.9889 81.84 88.3789 81.84 92.4489 80.81L92.5789 80.78L95.1389 85.29C95.3189 85.6 95.6489 85.79 95.9989 85.79H102.019C102.369 85.79 102.699 85.6 102.879 85.3C103.059 85 103.059 84.62 102.889 84.31L99.2889 77.94L99.4289 77.85C101.109 76.83 102.669 75.59 104.079 74.19ZM55.3989 52.39H64.0489L66.9589 55.3H58.3189L55.3989 52.39ZM55.3989 60.21L58.3089 57.3H66.9589L64.0489 60.21H55.3989ZM75.7989 83.82H72.0689L74.8389 78.92L74.9889 78.99C75.8689 79.42 76.7589 79.81 77.6589 80.12L77.8589 80.19L75.7989 83.82ZM100.319 83.82H96.5889L94.5389 80.2L94.7389 80.13C95.6289 79.81 96.5289 79.43 97.4089 79L97.5589 78.93L100.319 83.82ZM97.5089 76.69L97.3989 76.75C95.9689 77.54 94.4489 78.17 92.8889 78.64C92.8189 78.65 92.7689 78.67 92.7189 78.69C90.5989 79.3 88.4089 79.61 86.1889 79.61C83.9689 79.61 81.7789 79.3 79.6789 78.69C79.6189 78.67 79.5689 78.65 79.5089 78.64C77.9289 78.17 76.4089 77.53 74.9789 76.75L74.9389 76.72L74.8789 76.69C72.9889 75.64 71.2489 74.32 69.7089 72.78C66.8289 69.9 64.7489 66.32 63.6889 62.41L63.6289 62.19H64.4589C64.7289 62.19 64.9789 62.09 65.1589 61.9L68.4989 58.56L68.5489 58.9C69.1089 62.71 70.8489 66.17 73.5789 68.9C76.9489 72.27 81.4189 74.12 86.1789 74.12C90.9389 74.12 95.4089 72.27 98.7789 68.9C102.159 65.53 104.009 61.06 104.009 56.3C104.009 51.54 102.159 47.07 98.7889 43.7C95.9989 40.91 92.4689 39.16 88.5689 38.64C84.7989 38.13 80.8889 38.86 77.5789 40.69C77.3489 40.82 77.1789 41.03 77.1089 41.28C77.0389 41.53 77.0689 41.8 77.1989 42.04C77.4589 42.52 78.0689 42.69 78.5489 42.43C84.6789 39.04 92.4289 40.14 97.3889 45.1C100.379 48.09 102.029 52.07 102.029 56.3C102.029 60.53 100.379 64.51 97.3889 67.5C94.3989 70.49 90.4189 72.14 86.1889 72.14C81.9589 72.14 77.9789 70.49 74.9889 67.5C72.3289 64.84 70.6989 61.28 70.4089 57.49L70.3989 57.3H75.8889L75.9089 57.46C76.1689 59.81 77.1889 61.94 78.8689 63.62C80.8189 65.57 83.4189 66.65 86.1789 66.65C88.9389 66.65 91.5389 65.57 93.4889 63.62C95.4389 61.67 96.5189 59.07 96.5189 56.31C96.5189 53.55 95.4389 50.95 93.4889 49C91.5389 47.05 88.9389 45.97 86.1789 45.97C83.4189 45.97 80.8189 47.05 78.8689 49C77.1889 50.68 76.1589 52.81 75.9089 55.16L75.8889 55.32H70.3889L70.3989 55.13C70.5589 52.84 71.2089 50.66 72.3089 48.66C72.4389 48.43 72.4689 48.16 72.3889 47.9C72.3089 47.64 72.1489 47.43 71.9189 47.31C71.4389 47.04 70.8289 47.22 70.5689 47.7C69.5489 49.56 68.8689 51.58 68.5489 53.71L68.4989 54.05L65.1489 50.7C64.9589 50.51 64.7089 50.41 64.4489 50.41H63.6189L63.6789 50.19C64.7389 46.28 66.8189 42.7 69.6989 39.82C74.0989 35.42 79.9589 32.99 86.1789 32.99C92.3989 32.99 98.2589 35.41 102.659 39.82C107.059 44.22 109.489 50.08 109.489 56.3C109.489 62.52 107.069 68.38 102.659 72.78C101.129 74.32 99.3989 75.64 97.5089 76.69ZM82.5289 58.41C82.7889 58.87 83.4189 59.04 83.8889 58.78L86.6889 57.16C86.9989 56.98 87.1889 56.65 87.1889 56.3C87.1889 55.95 86.9989 55.62 86.6889 55.44L83.8889 53.82C83.4089 53.55 82.8089 53.71 82.5289 54.18C82.3689 54.45 82.3489 54.77 82.4789 55.06L82.5789 55.3H77.8989L77.9289 55.1C78.1889 53.31 78.9989 51.67 80.2889 50.39C81.8689 48.81 83.9689 47.94 86.1989 47.94C88.4289 47.94 90.5289 48.81 92.1089 50.39C93.6889 51.97 94.5589 54.07 94.5589 56.3C94.5589 58.53 93.6889 60.63 92.1089 62.21C90.5289 63.79 88.4289 64.66 86.1989 64.66C83.9689 64.66 81.8689 63.79 80.2889 62.21C78.9989 60.92 78.1789 59.29 77.9289 57.5L77.8989 57.3H82.5789L82.4789 57.54C82.3489 57.83 82.3689 58.15 82.5289 58.41Z" fill="black"/>
</svg>
