<svg width="50" height="50" viewBox="0 0 50 50" fill="none" xmlns="http://www.w3.org/2000/svg">
<rect width="50" height="50" rx="2" fill="#4050A5"/>
<path d="M32.6607 17.4198H31.1875V16.3821C31.1875 15.6188 30.5879 15 29.8482 15H29.7946C29.055 15 28.4554 15.6188 28.4554 16.3821V17.4198H21.5446V16.3821C21.5446 15.6188 20.945 15 20.2054 15H20.1518C19.4121 15 18.8125 15.6188 18.8125 16.3821V17.4198H17.3393C16.5996 17.4198 16 18.0386 16 18.8019V33.6179C16 34.3813 16.5996 35 17.3393 35H32.6607C33.4004 35 34 34.3813 34 33.6179V18.8019C34 18.0386 33.4003 17.4198 32.6607 17.4198ZM31.75 32.8163H18.25V21.5937H31.75V32.8163Z" fill="white"/>
<path d="M20.0849 26.6723H22.4151C22.5335 26.6723 22.6294 26.5733 22.6294 26.4512V24.0464C22.6294 23.9243 22.5335 23.8253 22.4151 23.8253H20.0849C19.9665 23.8253 19.8706 23.9243 19.8706 24.0464V26.4512C19.8706 26.5733 19.9665 26.6723 20.0849 26.6723Z" fill="white"/>
<path d="M23.8349 26.6723H26.1651C26.2835 26.6723 26.3794 26.5733 26.3794 26.4512V24.0464C26.3794 23.9243 26.2835 23.8253 26.1651 23.8253H23.8349C23.7166 23.8253 23.6206 23.9243 23.6206 24.0464V26.4512C23.6206 26.5733 23.7166 26.6723 23.8349 26.6723Z" fill="white"/>
<path d="M27.5849 26.6723H29.9152C30.0335 26.6723 30.1294 26.5733 30.1294 26.4512V24.0464C30.1294 23.9243 30.0335 23.8253 29.9152 23.8253H27.5849C27.4666 23.8253 27.3706 23.9243 27.3706 24.0464V26.4512C27.3706 26.5733 27.4666 26.6723 27.5849 26.6723Z" fill="white"/>
<path d="M20.0849 30.5421H22.4151C22.5335 30.5421 22.6294 30.4431 22.6294 30.321V27.9163C22.6294 27.7942 22.5335 27.6951 22.4151 27.6951H20.0849C19.9665 27.6951 19.8706 27.7942 19.8706 27.9163V30.321C19.8706 30.4431 19.9665 30.5421 20.0849 30.5421Z" fill="white"/>
<path d="M23.8349 30.5421H26.1651C26.2835 30.5421 26.3794 30.4431 26.3794 30.321V27.9163C26.3794 27.7942 26.2835 27.6951 26.1651 27.6951H23.8349C23.7166 27.6951 23.6206 27.7942 23.6206 27.9163V30.321C23.6206 30.4431 23.7166 30.5421 23.8349 30.5421Z" fill="white"/>
<path d="M27.5849 30.5421H29.9152C30.0335 30.5421 30.1294 30.4431 30.1294 30.321V27.9163C30.1294 27.7942 30.0335 27.6951 29.9152 27.6951H27.5849C27.4666 27.6951 27.3706 27.7942 27.3706 27.9163V30.321C27.3706 30.4431 27.4666 30.5421 27.5849 30.5421Z" fill="white"/>
</svg>
