<svg width="1291" height="636" viewBox="0 0 1291 636" fill="none" xmlns="http://www.w3.org/2000/svg">
<path d="M1.01899 21.6025C0.469558 9.95463 9.96093 0.308627 21.6162 0.669749L1270.57 39.3669C1281.78 39.7143 1290.51 49.2138 1289.92 60.4158L1261.98 587.516C1261.43 597.947 1252.94 606.196 1242.49 606.451L49.5439 635.524C38.6788 635.789 29.591 627.328 29.0789 616.472L1.01899 21.6025Z" fill="white"/>
<path d="M1274.98 28.5555C1275.5 17.49 1266.49 8.3261 1255.41 8.66905L34.4663 46.4861C23.8142 46.816 15.5168 55.8408 16.0812 66.4829L43.3679 581.123C43.8933 591.033 51.9573 598.87 61.8785 599.112L1228.13 627.524C1238.45 627.776 1247.09 619.739 1247.57 609.425L1274.98 28.5555Z" stroke="#041032" stroke-width="2"/>
<path d="M1222.87 54.1278L1227 50M1194 83L1198.12 78.8722M1198.12 54.1278L1194 50M1227 83L1222.87 78.8722" stroke="black" stroke-width="2" stroke-miterlimit="10" stroke-linecap="round"/>
<path d="M59.7228 94.1364C77.9306 82.1907 98.6392 74.5371 120.583 72" stroke="black" stroke-width="2" stroke-miterlimit="10" stroke-linecap="round" stroke-dasharray="0.79 0.79"/>
</svg>
