<svg width="125" height="117" viewBox="0 0 125 117" fill="none" xmlns="http://www.w3.org/2000/svg">
<path d="M18.7958 87.0783C-34.046 33.6661 101.647 -22.9862 112.995 46.0567C120.559 92.0702 61.9173 130.665 18.7958 87.0783Z" fill="#88CBFF"/>
<path d="M107.312 59.7133C121.004 126.213 -9.64539 102.304 15.7803 44.3983C32.7246 5.8079 96.1398 5.44673 107.312 59.7133Z" stroke="black" stroke-width="2" stroke-miterlimit="10" stroke-linecap="round"/>
<path d="M72.1538 33.6129C66.5554 33.6129 62 38.0704 62 43.5484H63.8462C63.8462 39.0658 67.5727 35.4194 72.1538 35.4194V33.6129Z" fill="black"/>
<path d="M80.4615 43.5484C80.4615 48.031 76.735 51.6774 72.1538 51.6774V53.4839C77.7523 53.4839 82.3077 49.0264 82.3077 43.5484H80.4615Z" fill="black"/>
<path d="M86 43.5484C86 36.0778 79.7886 30 72.1538 30C66.8516 30 62.2429 32.9337 59.9168 37.2258H38.9231C38.4124 37.2258 38 37.6293 38 38.129V85.0968C38 85.5965 38.4124 86 38.9231 86H79.5385C80.0491 86 80.4615 85.5965 80.4615 85.0968V54.362C83.8167 51.8869 86 47.9679 86 43.5484ZM61.1026 51.6774H43.5385V42.6452H58.3546C58.3343 42.9451 58.3077 43.2432 58.3077 43.5484C58.3077 46.6003 59.3565 49.4105 61.1026 51.6774ZM78.6154 84.1935H39.8462V39.0323H59.1154C58.9022 39.6193 58.7156 40.2182 58.5862 40.8387H42.6154C42.1047 40.8387 41.6923 41.2423 41.6923 41.7419V52.5806C41.6923 53.0803 42.1047 53.4839 42.6154 53.4839H62.7716C65.242 55.7186 68.5319 57.0968 72.1538 57.0968C74.4872 57.0968 76.6845 56.5243 78.6154 55.5223V84.1935ZM72.1538 55.2903C65.5373 55.2903 60.1538 50.0227 60.1538 43.5484C60.1538 37.0741 65.5373 31.8065 72.1538 31.8065C78.7704 31.8065 84.1538 37.0741 84.1538 43.5484C84.1538 50.0227 78.7704 55.2903 72.1538 55.2903Z" fill="black"/>
<path d="M73.0769 48.0645C74.6035 48.0645 75.8462 46.8486 75.8462 45.3548C75.8462 43.8611 74.6035 42.6452 73.0769 42.6452H71.2308C70.7215 42.6452 70.3077 42.2403 70.3077 41.7419C70.3077 41.2436 70.7215 40.8387 71.2308 40.8387H75.8462V39.0323H73.0769V37.2258H71.2308V39.0323C69.7042 39.0323 68.4615 40.2482 68.4615 41.7419C68.4615 43.2357 69.7042 44.4516 71.2308 44.4516H73.0769C73.5862 44.4516 74 44.8565 74 45.3548C74 45.8532 73.5862 46.2581 73.0769 46.2581H68.4615V48.0645H71.2308V49.871H73.0769V48.0645Z" fill="black"/>
<path d="M48.1538 57.0968H42.6154C42.1047 57.0968 41.6923 57.5003 41.6923 58V63.4194C41.6923 63.919 42.1047 64.3226 42.6154 64.3226H48.1538C48.6645 64.3226 49.0769 63.919 49.0769 63.4194V58C49.0769 57.5003 48.6645 57.0968 48.1538 57.0968ZM47.2308 62.5161H43.5385V58.9032H47.2308V62.5161Z" fill="black"/>
<path d="M57.3846 57.0968H51.8462C51.3355 57.0968 50.9231 57.5003 50.9231 58V63.4194C50.9231 63.919 51.3355 64.3226 51.8462 64.3226H57.3846C57.8953 64.3226 58.3077 63.919 58.3077 63.4194V58C58.3077 57.5003 57.8953 57.0968 57.3846 57.0968ZM56.4615 62.5161H52.7692V58.9032H56.4615V62.5161Z" fill="black"/>
<path d="M66.6154 57.0968H61.0769C60.5663 57.0968 60.1538 57.5003 60.1538 58V63.4194C60.1538 63.919 60.5663 64.3226 61.0769 64.3226H66.6154C67.1261 64.3226 67.5385 63.919 67.5385 63.4194V58C67.5385 57.5003 67.1261 57.0968 66.6154 57.0968ZM65.6923 62.5161H62V58.9032H65.6923V62.5161Z" fill="black"/>
<path d="M48.1538 66.129H42.6154C42.1047 66.129 41.6923 66.5326 41.6923 67.0323V72.4516C41.6923 72.9513 42.1047 73.3548 42.6154 73.3548H48.1538C48.6645 73.3548 49.0769 72.9513 49.0769 72.4516V67.0323C49.0769 66.5326 48.6645 66.129 48.1538 66.129ZM47.2308 71.5484H43.5385V67.9355H47.2308V71.5484Z" fill="black"/>
<path d="M57.3846 66.129H51.8462C51.3355 66.129 50.9231 66.5326 50.9231 67.0323V72.4516C50.9231 72.9513 51.3355 73.3548 51.8462 73.3548H57.3846C57.8953 73.3548 58.3077 72.9513 58.3077 72.4516V67.0323C58.3077 66.5326 57.8953 66.129 57.3846 66.129ZM56.4615 71.5484H52.7692V67.9355H56.4615V71.5484Z" fill="black"/>
<path d="M66.6154 66.129H61.0769C60.5663 66.129 60.1538 66.5326 60.1538 67.0323V72.4516C60.1538 72.9513 60.5663 73.3548 61.0769 73.3548H66.6154C67.1261 73.3548 67.5385 72.9513 67.5385 72.4516V67.0323C67.5385 66.5326 67.1261 66.129 66.6154 66.129ZM65.6923 71.5484H62V67.9355H65.6923V71.5484Z" fill="black"/>
<path d="M69.3846 67.0323V81.4839C69.3846 81.9836 69.797 82.3871 70.3077 82.3871H75.8462C76.3568 82.3871 76.7692 81.9836 76.7692 81.4839V67.0323C76.7692 66.5326 76.3568 66.129 75.8462 66.129H70.3077C69.797 66.129 69.3846 66.5326 69.3846 67.0323ZM71.2308 67.9355H74.9231V80.5806H71.2308V67.9355Z" fill="black"/>
<path d="M48.1538 75.1613H42.6154C42.1047 75.1613 41.6923 75.5648 41.6923 76.0645V81.4839C41.6923 81.9836 42.1047 82.3871 42.6154 82.3871H48.1538C48.6645 82.3871 49.0769 81.9836 49.0769 81.4839V76.0645C49.0769 75.5648 48.6645 75.1613 48.1538 75.1613ZM47.2308 80.5806H43.5385V76.9677H47.2308V80.5806Z" fill="black"/>
<path d="M57.3846 75.1613H51.8462C51.3355 75.1613 50.9231 75.5648 50.9231 76.0645V81.4839C50.9231 81.9836 51.3355 82.3871 51.8462 82.3871H57.3846C57.8953 82.3871 58.3077 81.9836 58.3077 81.4839V76.0645C58.3077 75.5648 57.8953 75.1613 57.3846 75.1613ZM56.4615 80.5806H52.7692V76.9677H56.4615V80.5806Z" fill="black"/>
<path d="M66.6154 75.1613H61.0769C60.5663 75.1613 60.1538 75.5648 60.1538 76.0645V81.4839C60.1538 81.9836 60.5663 82.3871 61.0769 82.3871H66.6154C67.1261 82.3871 67.5385 81.9836 67.5385 81.4839V76.0645C67.5385 75.5648 67.1261 75.1613 66.6154 75.1613ZM65.6923 80.5806H62V76.9677H65.6923V80.5806Z" fill="black"/>
</svg>
